<svg xmlns="http://www.w3.org/2000/svg" width="37.012" height="37.019" viewBox="0 0 37.012 37.019"><path d="M37.366,10.884a13.527,13.527,0,0,0-.86-4.491A9.483,9.483,0,0,0,31.089.976,13.562,13.562,0,0,0,26.6.116C24.617.022,23.988,0,18.962,0s-5.655.022-7.629.108a13.531,13.531,0,0,0-4.491.86A9.032,9.032,0,0,0,3.558,3.11,9.114,9.114,0,0,0,1.425,6.386a13.563,13.563,0,0,0-.86,4.491C.47,12.858.449,13.487.449,18.513s.022,5.655.108,7.629a13.526,13.526,0,0,0,.861,4.491A9.481,9.481,0,0,0,6.834,36.05a13.564,13.564,0,0,0,4.491.86c1.974.087,2.6.108,7.629.108S24.61,37,26.584,36.91a13.524,13.524,0,0,0,4.491-.86,9.469,9.469,0,0,0,5.417-5.416,13.572,13.572,0,0,0,.86-4.491c.087-1.974.108-2.6.108-7.629s-.007-5.655-.094-7.629ZM34.033,26a10.147,10.147,0,0,1-.636,3.435,6.141,6.141,0,0,1-3.515,3.515,10.182,10.182,0,0,1-3.435.636c-1.953.087-2.538.108-7.477.108s-5.532-.021-7.478-.108a10.141,10.141,0,0,1-3.435-.636A5.7,5.7,0,0,1,5.93,31.566,5.755,5.755,0,0,1,4.549,29.44a10.184,10.184,0,0,1-.636-3.435c-.087-1.953-.108-2.538-.108-7.478S3.826,13,3.913,11.05a10.141,10.141,0,0,1,.636-3.435A5.627,5.627,0,0,1,5.938,5.489,5.747,5.747,0,0,1,8.064,4.108,10.19,10.19,0,0,1,11.5,3.471c1.953-.087,2.538-.108,7.477-.108s5.532.022,7.478.108a10.147,10.147,0,0,1,3.435.636,5.692,5.692,0,0,1,2.126,1.381A5.754,5.754,0,0,1,33.4,7.615a10.188,10.188,0,0,1,.636,3.435c.087,1.953.108,2.538.108,7.477s-.022,5.518-.108,7.47Zm0,0" transform="translate(-0.449 0)" fill="#fff"/><path d="M134.459,124.5a9.51,9.51,0,1,0,9.51,9.51A9.512,9.512,0,0,0,134.459,124.5Zm0,15.678a6.169,6.169,0,1,1,6.169-6.169A6.17,6.17,0,0,1,134.459,140.178Zm0,0" transform="translate(-115.946 -115.497)" fill="#fff"/><path d="M366.89,90.822a2.22,2.22,0,1,1-2.22-2.22A2.22,2.22,0,0,1,366.89,90.822Zm0,0" transform="translate(-336.271 -82.194)" fill="#fff"/></svg>