<svg xmlns="http://www.w3.org/2000/svg" width="40.608" height="37.216" viewBox="0 0 40.608 37.216"><g transform="translate(0 0)"><path d="M39.689,44.931c-5.117-.828-7.449-5.909-7.7-6.486,0-.011-.024-.052-.03-.064a1.493,1.493,0,0,1-.186-1.233c.269-.624,1.407-.977,2.136-1.2.205-.065.4-.125.55-.185,1.474-.571,2.214-1.3,2.2-2.172a1.871,1.871,0,0,0-1.383-1.608,2.539,2.539,0,0,0-.943-.179,2.151,2.151,0,0,0-.88.178,4.541,4.541,0,0,1-1.6.458,1.558,1.558,0,0,1-.43-.072c.013-.217.028-.441.042-.668l.007-.116c.174-2.71.39-6.083-.529-8.1a11.007,11.007,0,0,0-10.189-6.448l-.795.007A10.989,10.989,0,0,0,9.789,23.48c-.921,2.026-.7,5.4-.529,8.107.017.266.034.526.049.779a1.606,1.606,0,0,1-.512.074,4.316,4.316,0,0,1-1.739-.461A2.291,2.291,0,0,0,4.1,33.353c-.129.663.143,1.619,2.172,2.407.158.061.356.124.6.2.68.212,1.818.566,2.088,1.189a1.562,1.562,0,0,1-.211,1.286c-.1.229-2.51,5.616-7.833,6.476A1.076,1.076,0,0,0,0,46.027a1.352,1.352,0,0,0,.111.459c.447,1.027,2.151,1.74,5.357,2.24a6.509,6.509,0,0,1,.2.758c.068.3.139.617.236.942a1.181,1.181,0,0,0,1.225.88,5.542,5.542,0,0,0,.968-.131,10.484,10.484,0,0,1,2.084-.233,9.371,9.371,0,0,1,1.493.125,7.157,7.157,0,0,1,2.776,1.417,8.217,8.217,0,0,0,5.355,1.76c.069,0,.137,0,.2-.007.1,0,.194.007.293.007a10.288,10.288,0,0,0,5.987-1.762,7.245,7.245,0,0,1,2.771-1.415,9.409,9.409,0,0,1,1.495-.125,10.594,10.594,0,0,1,2.093.219,5.258,5.258,0,0,0,1.005.115,1.161,1.161,0,0,0,1.18-.866c.095-.32.166-.625.235-.936a6.68,6.68,0,0,1,.2-.752c3.161-.494,4.775-1.179,5.221-2.2a1.334,1.334,0,0,0,.117-.47A1.08,1.08,0,0,0,39.689,44.931Z" transform="translate(0.002 -17.029)" fill="#fff"/></g></svg>