<svg xmlns="http://www.w3.org/2000/svg" width="45.872" height="32.118" viewBox="0 0 45.872 32.118"><path d="M44.928-1.056A5.747,5.747,0,0,0,40.885-5.1c-3.59-.982-17.948-.982-17.948-.982s-14.358,0-17.948.945A5.863,5.863,0,0,0,.945-1.056C0,2.533,0,9.977,0,9.977S0,17.458.945,21.01a5.748,5.748,0,0,0,4.043,4.043c3.627.982,17.948.982,17.948.982s14.358,0,17.948-.945a5.747,5.747,0,0,0,4.043-4.043c.944-3.59.944-11.033.944-11.033s.038-7.482-.945-11.071ZM18.365,16.854V3.1L30.3,9.977Zm0,0" transform="translate(-0.001 6.082)" fill="#fff"/></svg>